<svg width="502" height="387" viewBox="0 0 502 387" fill="none" xmlns="http://www.w3.org/2000/svg">
<path d="M117.764 290.282L116.844 287.522V285.222L121.444 283.382L130.184 287.982L117.764 290.282Z" fill="#FDE7C7"/>
<path d="M392.3 271.08C392.3 271.08 382.179 274.861 377.441 283.685C372.703 292.508 375.068 303.006 375.068 303.006C375.068 303.006 385.188 299.215 389.926 290.392C394.664 281.568 392.3 271.08 392.3 271.08Z" fill="#202020"/>
<path d="M405.861 284.239C405.861 284.239 402.558 294.507 393.965 299.668C385.372 304.83 374.755 302.953 374.755 302.953C374.755 302.953 378.067 292.685 386.651 287.514C395.235 282.343 405.861 284.239 405.861 284.239Z" fill="#FFD100"/>
<path d="M372.05 31.7615H318.449V32.5251H372.05V31.7615Z" fill="white"/>
<path d="M357.495 32.33H356.731V39.4145H357.495V32.33Z" fill="white"/>
<path d="M334.144 32.33H333.381V39.4145H334.144V32.33Z" fill="white"/>
<path d="M399.237 68.5076H345.636V69.2713H399.237V68.5076Z" fill="white"/>
<path d="M360.945 61.6164H360.182V68.701H360.945V61.6164Z" fill="white"/>
<path d="M470.446 85.7419H416.846V86.5056H470.446V85.7419Z" fill="white"/>
<path d="M437.187 76.034H436.424V83.1185H437.187V76.034Z" fill="white"/>
<path d="M465.083 263.389H411.482V264.153H465.083V263.389Z" fill="white"/>
<path d="M426.791 256.498H426.027V263.582H426.791V256.498Z" fill="white"/>
<path d="M450.15 256.498H449.387V263.582H450.15V256.498Z" fill="white"/>
<path d="M373.586 140.495H319.985V141.259H373.586V140.495Z" fill="white"/>
<path d="M335.295 133.602H334.531V140.687H335.295V133.602Z" fill="white"/>
<path d="M358.644 133.602H357.881V140.687H358.644V133.602Z" fill="white"/>
<path d="M390.432 232.759H336.831V233.522H390.432V232.759Z" fill="white"/>
<path d="M352.141 225.868H351.377V232.953H352.141V225.868Z" fill="white"/>
<path d="M375.491 225.868H374.728V232.953H375.491V225.868Z" fill="white"/>
<path d="M476.188 204.807H422.587V205.571H476.188V204.807Z" fill="white"/>
<path d="M437.896 197.917H437.133V205.001H437.896V197.917Z" fill="white"/>
<path d="M442.929 195.1H442.165V202.185H442.929V195.1Z" fill="white"/>
<path d="M298.852 286.849H208.202V286.196H298.199V254.564H215.82L211.818 246.228L212.407 245.943L216.234 253.911H298.852V286.849Z" fill="#333533"/>
<path d="M220.264 302.823C224.044 302.823 227.109 299.759 227.109 295.978C227.109 292.197 224.044 289.133 220.264 289.133C216.484 289.133 213.419 292.197 213.419 295.978C213.419 299.759 216.484 302.823 220.264 302.823Z" fill="#333533"/>
<path d="M287.766 302.823C291.546 302.823 294.611 299.759 294.611 295.978C294.611 292.197 291.546 289.133 287.766 289.133C283.985 289.133 280.921 292.197 280.921 295.978C280.921 299.759 283.985 302.823 287.766 302.823Z" fill="#333533"/>
<path d="M367.33 154.783C369.673 154.783 371.572 152.884 371.572 150.541C371.572 148.199 369.673 146.3 367.33 146.3C364.988 146.3 363.089 148.199 363.089 150.541C363.089 152.884 364.988 154.783 367.33 154.783Z" fill="#333533"/>
<path d="M308.55 243.819H206.657L184.576 171.75H331.256L331.118 172.182L308.55 243.819ZM207.135 243.175H308.071L330.364 172.403H185.487L207.135 243.175Z" fill="#333533"/>
<path d="M300.6 240.056H211.1L191.733 176.139H320.537L320.418 176.516L300.6 240.056Z" fill="#D6D6D6" fill-opacity="0.7"/>
<path d="M333.087 165.3L332.452 165.125L336.758 148.904H361.792V149.558H337.255L333.087 165.3Z" fill="#333533"/>
<path d="M323.923 193.582H191.733V194.235H323.923V193.582Z" fill="#333533" fill-opacity="0.3"/>
<path d="M316.36 217.615H199.084V218.268H316.36V217.615Z" fill="#333533" fill-opacity="0.3"/>
<path d="M258.261 172.063H257.607V243.479H258.261V172.063Z" fill="#333533" fill-opacity="0.3"/>
<path d="M287.446 172.028L282.766 243.447L283.417 243.49L288.098 172.071L287.446 172.028Z" fill="#333533" fill-opacity="0.3"/>
<path d="M228.415 172.041L227.763 172.084L232.419 243.505L233.07 243.462L228.415 172.041Z" fill="#333533" fill-opacity="0.3"/>
<path d="M236.906 153.128H183.306V153.892H236.906V153.128Z" fill="white"/>
<path d="M198.616 146.237H197.853V153.321H198.616V146.237Z" fill="white"/>
<path d="M221.975 146.237H221.211V153.321H221.975V146.237Z" fill="white"/>
<path d="M255.666 39.8025H202.065V40.5662H255.666V39.8025Z" fill="white"/>
<path d="M241.111 40.3717H240.348V47.4562H241.111V40.3717Z" fill="white"/>
<path d="M217.762 40.3717H216.998V47.4562H217.762V40.3717Z" fill="white"/>
<path d="M309.645 115.22H256.044V115.984H309.645V115.22Z" fill="white"/>
<path d="M295.099 115.801H294.335V122.885H295.099V115.801Z" fill="white"/>
<path d="M271.739 115.801H270.976V122.885H271.739V115.801Z" fill="white"/>
<path d="M218.533 114.843H164.933V115.607H218.533V114.843Z" fill="white"/>
<path d="M203.979 115.414H203.216V122.498H203.979V115.414Z" fill="white"/>
<path d="M180.629 115.414H179.865V122.498H180.629V115.414Z" fill="white"/>
<path d="M282.853 76.5504H229.252V77.314H282.853V76.5504Z" fill="white"/>
<path d="M244.562 69.6575H243.798V76.742H244.562V69.6575Z" fill="white"/>
<path d="M267.912 69.6575H267.148V76.742H267.912V69.6575Z" fill="white"/>
<path d="M87.632 287.311C87.264 288.617 86.9052 289.933 86.5464 291.239H73.666L74.08 289.482C74.2364 289.657 74.3836 289.85 74.5492 290.016C74.8884 290.395 75.3256 290.672 75.8126 290.818C76.2997 290.965 76.8176 290.973 77.3093 290.844C77.7359 290.76 78.1288 290.554 78.4394 290.25C78.75 289.946 78.9649 289.557 79.0574 289.132C79.0794 288.938 79.0614 288.742 79.0044 288.555C78.9475 288.368 78.8527 288.195 78.7262 288.047C78.5974 287.899 78.0269 287.973 77.8061 288.148C77.3741 288.501 76.9682 288.886 76.5917 289.298L74.5676 287.458C74.7516 286.685 74.9357 285.912 75.1105 285.139L78.1557 285.673L87.632 287.311Z" fill="#FFD100"/>
<path d="M117.763 290.154C118.131 291.46 118.49 292.776 118.849 294.082H131.729L131.315 292.325C131.159 292.5 131.012 292.693 130.846 292.859C130.507 293.237 130.07 293.515 129.583 293.661C129.096 293.808 128.578 293.816 128.086 293.687C127.66 293.603 127.267 293.397 126.956 293.093C126.645 292.788 126.431 292.4 126.338 291.975C126.316 291.781 126.334 291.585 126.391 291.398C126.448 291.211 126.543 291.038 126.669 290.89C126.798 290.742 127.369 290.816 127.589 290.991C128.021 291.344 128.427 291.729 128.804 292.141L130.828 290.301C130.644 289.528 130.46 288.755 130.285 287.982L127.24 288.516L117.763 290.154Z" fill="#FFD100"/>
<path d="M106.557 216.272C105.637 219.842 104.635 223.412 103.696 226.991C98.7279 245.852 93.7659 264.717 88.8101 283.584C88.7809 283.667 88.744 283.748 88.6997 283.824L75.3409 283.741H72.958C73.418 281.192 73.878 278.782 74.292 276.38C75.2765 271.025 76.2793 265.68 77.2637 260.325C78.423 254.001 79.5761 247.68 80.723 241.362L84.5871 220.458L88.8101 197.714C88.8101 197.484 88.8653 197.245 88.8929 197.015C88.947 196.88 88.9931 196.742 89.0309 196.601C89.7301 192.865 90.4232 189.133 91.1101 185.404C92.6834 176.911 94.2382 168.419 95.8299 159.936C96.6855 155.391 97.6699 150.855 98.5163 146.319C103.586 146.255 108.922 144.194 109.483 141.912C108.039 143.339 106.308 144.443 104.405 145.151C102.546 145.842 100.572 146.17 98.5899 146.117C99.1849 143.423 100.18 140.833 101.543 138.434C102.362 137.082 103.291 135.803 104.975 135.407C106.631 135.333 108.296 135.287 109.952 135.195L127.709 134.183C131.646 133.962 135.593 133.76 139.531 133.548C141.158 136.739 142.464 140.083 143.432 143.531C144.287 146.522 144.693 149.622 144.637 152.732C144.573 154.655 144.343 156.578 144.196 158.501C143.874 162.623 143.57 166.781 143.276 170.857C142.895 175.452 142.503 180.052 142.098 184.658C141.73 188.891 141.35 193.123 140.957 197.355L139.605 212.26C139.209 216.585 138.804 220.9 138.427 225.215C138.197 227.764 138.013 230.303 137.801 232.852C137.571 235.179 137.323 237.516 137.102 239.844C136.581 245.365 136.069 250.885 135.566 256.405L134.241 270.869L132.889 285.498C132.797 286.51 132.695 287.513 132.603 288.516C130.763 288.378 128.923 288.258 127.083 288.111L119.143 287.485L116.65 287.292C116.65 285.839 116.65 284.449 116.65 283.051C116.883 269.526 117.119 255.998 117.358 242.466C117.469 236.486 117.573 230.509 117.671 224.534C117.671 224.212 117.671 223.881 117.671 223.559C117.671 223.237 117.671 223.2 117.671 223.025C117.843 214.229 118.015 205.431 118.187 196.629C118.303 190.298 118.413 183.965 118.518 177.629C118.518 175.513 118.518 173.388 118.518 171.271C118.358 171.558 118.246 171.869 118.187 172.191C115.12 183.784 112.053 195.374 108.986 206.961C108.149 210.071 107.358 213.171 106.557 216.272ZM142.944 146.126V146.19H143L142.917 146.117L142.742 145.933L142.567 145.749L142.392 145.574L142.218 145.39L141.518 144.663C141.438 144.415 141.336 144.175 141.215 143.945C140.087 142.376 139.375 140.546 139.145 138.627C139.034 137.385 138.988 136.143 138.915 134.901C138.76 136.325 138.739 137.76 138.85 139.188C139.113 141.261 140.032 143.196 141.472 144.709L142.199 145.417L142.374 145.592L142.558 145.776L142.733 145.951L142.944 146.126ZM112.078 138.811L112.252 138.452L112.427 138.094L112.556 137.891L112.492 137.845L112.427 138.084C112.363 138.204 112.298 138.324 112.243 138.443L112.059 138.802L111.986 138.885L112.078 138.811ZM129.558 136.493L129.724 136.677C129.724 137.063 129.862 137.551 129.678 137.818C129.494 138.084 128.877 138.342 128.656 138.222C128.261 138.002 128.031 137.496 127.736 137.128C127.62 137.387 127.608 137.682 127.702 137.951C127.796 138.219 127.989 138.442 128.242 138.572C128.519 138.747 128.851 138.812 129.173 138.754C129.495 138.696 129.783 138.52 129.981 138.259C130.088 138.146 130.169 138.009 130.216 137.86C130.263 137.711 130.276 137.553 130.254 137.399C130.232 137.244 130.175 137.096 130.088 136.966C130.001 136.837 129.886 136.728 129.751 136.649L129.567 136.474L129.365 136.345L129.319 136.41L129.558 136.493ZM127.056 142.372C126.412 142.777 126.43 143.292 126.853 143.844C126.95 143.976 127.073 144.087 127.214 144.171C127.355 144.255 127.511 144.309 127.673 144.33C127.836 144.352 128.001 144.34 128.159 144.296C128.317 144.252 128.464 144.177 128.592 144.074C128.789 143.937 128.933 143.735 128.999 143.503C129.064 143.272 129.047 143.025 128.951 142.804C128.601 143.218 128.353 143.724 127.966 143.89C127.792 143.982 127.24 143.596 127.046 143.301C126.853 143.007 127.046 142.694 127.046 142.381L127.12 142.289L127.056 142.372ZM119.171 168.456L119.539 168.53L125.786 138.057L125.436 137.983L119.171 168.456ZM110.771 140.541L111.02 140.707L111.507 139.842L111.296 139.722L110.771 140.541ZM109.915 141.461L110.109 141.636L110.688 140.992L110.504 140.826L109.915 141.461ZM111.829 139.373C111.829 139.317 111.829 139.253 111.774 139.235C111.719 139.216 111.682 139.235 111.636 139.235L111.7 139.419L111.829 139.373ZM128.555 142.289C128.555 142.289 128.555 142.289 128.555 142.234C128.545 142.23 128.534 142.227 128.523 142.227C128.512 142.227 128.501 142.23 128.491 142.234V142.317L128.555 142.289Z" fill="#333533"/>
<path d="M95.6824 82.2158L95.848 81.8754L97.2649 78.83C97.4279 78.6259 97.561 78.3998 97.6605 78.1583C98.5805 74.9289 99.3165 71.7178 98.4977 68.2952C98.2634 67.2886 98.1705 66.2543 98.2217 65.2221C98.3154 64.4572 98.5884 63.7251 99.0184 63.0856C99.4485 62.4461 100.023 61.9171 100.697 61.5418C101.86 60.7962 102.834 59.789 103.54 58.6006C104.246 57.4122 104.665 56.0753 104.763 54.6965C104.892 52.6845 105.372 50.7104 106.18 48.8633C106.318 48.5689 106.401 48.2468 106.511 47.9432C106.3 47.9432 106.217 47.9432 106.18 48.0444C105.227 50.005 104.62 52.1154 104.386 54.2825C104.128 56.2606 103.751 58.2204 102.205 59.6741C100.835 60.9622 99.4453 62.1951 98.0377 63.4556C98.2953 58.34 98.7093 53.2428 101.101 48.5781C102.112 46.4292 103.63 44.5584 105.524 43.127C107.419 41.6956 109.633 40.7466 111.976 40.3618L112.234 40.3066C114.212 40.1962 116.19 39.9478 118.159 39.9938C119.742 39.9913 121.302 40.3685 122.709 41.0937C124.116 41.8189 125.329 42.871 126.246 44.1617C127.631 46.1246 128.829 48.2131 129.825 50.3998C131.283 53.7036 131.915 57.3133 131.665 60.9162C131.609 62.1583 131.665 63.4096 131.665 64.6517C131.726 65.6614 132.004 66.6461 132.48 67.5385C132.956 68.4309 133.62 69.21 134.425 69.8225C135.389 70.6198 136.31 71.4675 137.185 72.3619C137.965 73.2376 138.374 74.3825 138.326 75.5545C138.326 76.6586 138.326 77.7535 138.326 78.8576C138.354 80.0899 138.672 81.2981 139.256 82.3838C139.839 83.4695 140.671 84.4018 141.684 85.1048C143.303 86.4021 144.987 87.635 146.486 89.0703C147.929 90.5819 148.863 92.5072 149.157 94.5763C149.451 96.6454 149.089 98.7546 148.124 100.608C146.79 98.7127 145.437 96.8357 144.131 94.922C141.371 90.8829 138.611 86.8346 135.851 82.7863C135.125 81.7209 134.057 80.9354 132.824 80.5597C132.898 80.2745 132.99 79.9893 133.045 79.704C133.404 77.9283 133.772 76.1618 134.075 74.386C134.09 74.2316 134.067 74.0759 134.01 73.9319C133.952 73.7879 133.861 73.6597 133.744 73.558C133.606 73.4568 133.21 73.696 132.934 73.788C132.725 74.0735 132.549 74.3822 132.41 74.708C132.042 75.8949 131.72 77.091 131.361 78.2871C131.262 78.6001 131.145 78.9073 131.011 79.2072L130.643 79.1244C130.772 77.8363 130.901 76.5482 131.039 75.2693C131.195 73.8248 131.407 72.3987 131.517 70.9542C131.513 70.7899 131.464 70.6299 131.377 70.4908C131.29 70.3516 131.167 70.2384 131.021 70.1629C130.854 70.153 130.687 70.1839 130.535 70.2528C130.383 70.3217 130.249 70.4266 130.147 70.5585C129.784 71.0639 129.524 71.6362 129.383 72.2423C129.015 74.156 128.748 76.0974 128.463 78.0203C128.404 78.3319 128.324 78.6393 128.224 78.9404L128.003 78.8852C127.985 78.717 127.985 78.5473 128.003 78.3791C128.196 76.6126 128.399 74.8461 128.592 73.0795C128.693 72.2331 128.767 71.3866 128.859 70.5401C129.872 68.6641 130.283 66.5213 130.036 64.4033C129.604 60.2722 129.043 56.1226 128.481 52.0467C128.292 51.1089 128.034 50.1863 127.709 49.2865C127.302 49.6609 126.77 49.8687 126.218 49.8687C125.666 49.8687 125.134 49.6609 124.728 49.2865C124.314 49.0105 123.936 48.6793 123.541 48.3664L123.357 48.1732V48.4953C123.532 49.4153 123.504 50.2802 122.556 50.7954C122.143 51.0311 121.661 51.1202 121.19 51.0484C120.72 50.9766 120.287 50.7481 119.962 50.3998C119.566 50.0502 119.208 49.6637 118.83 49.2957L118.665 49.1025L118.582 48.8541H118.49C118.49 48.9645 118.49 49.0749 118.536 49.1761V49.2497C118.453 51.9363 116.622 52.378 115.058 51.5959C114.07 51.0346 113.128 50.3946 112.243 49.6821C112.243 49.6821 112.188 49.8846 112.151 50.0778C112.123 50.2237 112.105 50.3712 112.096 50.5194C111.821 53.1604 112.239 55.8275 113.31 58.2572C114.589 61.0174 115.04 63.7776 113.632 66.6298C113.286 67.3934 113.158 68.2382 113.264 69.0699C113.37 69.9017 113.704 70.6878 114.23 71.3406C114.674 72.1328 115.044 72.9644 115.334 73.8248V74.9197L114.791 79.7868C114.883 80.9093 114.92 82.0318 115.067 83.1451C115.454 86.1445 116.208 89.1071 115.665 92.1618C115.215 94.7104 114.249 96.9553 111.856 98.2802C111.417 98.5915 110.899 98.7744 110.361 98.8085C109.823 98.8426 109.287 98.7266 108.811 98.4735C108.37 98.1812 108.034 97.7563 107.85 97.2601C107.666 96.7639 107.645 96.2222 107.79 95.7132C107.91 94.9496 107.974 94.1767 108.112 93.4223C108.675 90.1357 108.746 86.7838 108.324 83.4763C104.416 84.25 100.699 85.785 97.3845 87.9939C93.9755 90.3075 91.6026 93.8589 90.7695 97.8938C90.5841 98.6362 90.4428 99.3889 90.3463 100.148C90.156 103.472 90.6186 106.801 91.7079 109.947C92.9959 114.032 94.468 118.062 95.8388 122.11L94.0724 122.22C92.1257 122.135 90.2664 121.388 88.8006 120.104C86.3718 118.034 85.8657 115.265 87.2458 112.026C87.9329 110.58 88.529 109.093 89.0306 107.573C89.6378 105.411 89.2422 103.221 88.8282 101.04C88.3682 98.6115 88.0002 96.1365 89.1134 93.7811C89.7599 92.4837 90.485 91.227 91.2847 90.018C92.1035 88.7115 93.0143 87.4602 93.87 86.1721C94.146 85.7581 94.3668 85.3165 94.6152 84.884L95.6824 82.2158ZM102.711 81.0473L102.987 81.1117C103.289 79.9005 103.513 78.6712 103.659 77.4315C103.779 75.5913 103.585 73.7512 103.714 71.911C103.771 70.7092 104.055 69.529 104.551 68.4332C105.421 66.8207 106.421 65.2821 107.542 63.8328C108.451 62.6971 109.106 61.3785 109.46 59.967C109.814 58.5554 109.859 57.0841 109.593 55.6534C109.051 53.2887 108.985 50.8396 109.4 48.4493C109.455 48.1916 109.538 47.9432 109.602 47.6856C109.667 47.428 109.704 47.244 109.75 47.0231C108.675 49.3208 108.4 51.9116 108.968 54.3837C109.336 56.4355 109.621 58.4596 108.885 60.5022C107.987 62.5364 106.803 64.4324 105.37 66.133C103.714 68.4057 102.928 71.1966 103.153 73.9996C103.231 75.4983 103.231 77 103.153 78.4987C103.053 79.3564 102.902 80.2074 102.702 81.0473H102.711ZM114.23 41.4015C119.971 40.4814 121.756 44.1617 122.648 48.8817C122.722 42.5792 117.275 39.5614 114.23 41.4015Z" fill="#29343A"/>
<path d="M104.975 135.396C105.159 134.182 105.343 132.967 105.536 131.716C105.536 131.449 105.628 131.192 105.674 130.934C106.852 130.891 108.027 130.768 109.188 130.566C111.838 129.894 113.788 128.119 115.454 126.085C119.134 121.724 121.406 116.618 123.43 111.364C124.415 108.825 125.27 106.239 126.19 103.672C128.981 104.123 131.827 104.123 134.618 103.672C133.164 103.599 131.72 103.589 130.266 103.599C128.813 103.608 127.506 103.654 126.181 103.681C126.236 103.424 126.273 103.166 126.338 102.909C127.276 99.3571 128.221 95.8087 129.171 92.2634C129.42 91.3433 129.687 90.3496 129.944 89.3928C131.797 89.4065 133.621 88.9439 135.243 88.0495C135.994 87.6245 136.722 87.1608 137.424 86.6602L137.295 86.4393C135.027 87.8474 132.539 88.8673 129.935 89.4572C129.934 89.0498 129.971 88.6432 130.045 88.2427C130.395 87.1202 130.791 86.0069 131.177 84.8936L131.306 84.5348L131.361 84.3692L131.499 84.0012C131.519 83.9504 131.534 83.898 131.545 83.8447L131.683 83.4583C131.692 83.4128 131.692 83.3658 131.683 83.3203L131.821 82.9247C131.846 82.8824 131.862 82.8354 131.867 82.7867L131.996 82.391C132.019 82.3482 132.035 82.3014 132.042 82.253L132.217 81.6918L132.769 80.5509C134.019 80.9262 135.102 81.7226 135.832 82.8051C138.592 86.8534 141.352 90.9017 144.113 94.9408C145.419 96.8545 146.771 98.7315 148.105 100.627L149.348 102.541L148.124 104.151L146.017 106.672L139.42 114.612C138.993 107.391 137.693 100.248 135.547 93.3399C135.704 94.3335 135.924 95.318 136.145 96.3025C137.324 101.083 138.139 105.945 138.583 110.849C138.721 112.744 138.887 114.63 139.043 116.516C139.117 118.614 139.181 120.703 139.255 122.791C139.359 126.38 139.463 129.962 139.568 133.538C135.63 133.749 131.683 133.952 127.745 134.173L109.989 135.185C108.296 135.249 106.631 135.323 104.975 135.396ZM109.575 133.234C110.55 133.234 111.534 133.326 112.51 133.326C119.655 133.409 126.759 132.232 133.495 129.848L138.031 128.119L137.921 127.833L132.989 129.673C132.621 129.775 132.244 129.867 131.876 129.977C125.419 131.991 118.684 132.976 111.921 132.894C110.854 132.894 109.786 132.894 108.719 132.894L106.033 132.599V132.82L109.575 133.234ZM120.201 120.804C126.268 121.558 132.426 120.632 138.004 118.127C132.278 120.107 126.237 121.015 120.183 120.804H120.201ZM142.99 94.9776L137.47 98.3911C139.609 97.8404 141.528 96.6495 142.972 94.9776H142.99Z" fill="#FFD100"/>
<path d="M139.384 114.613L145.981 106.673L148.124 104.152C149.302 105.845 150.443 107.566 151.666 109.231C153.313 111.494 155.025 113.721 156.708 115.966C158.079 117.806 159.468 119.646 160.839 121.431C161.212 121.765 161.66 122.005 162.146 122.13C170.426 125.433 178.706 128.801 187.069 131.957C189.443 132.877 192.065 133.236 194.374 131.478C195.046 130.954 195.598 130.273 196.269 129.739C196.621 129.528 197.002 129.369 197.401 129.27C197.511 129.721 197.861 130.31 197.695 130.604C197.079 131.642 196.404 132.644 195.671 133.604C195.506 133.773 195.321 133.921 195.119 134.045C194.199 134.781 194.107 135.361 194.963 136.244C196.233 137.532 197.53 138.802 198.818 140.09C198.956 140.237 199.094 140.403 199.223 140.559C194.622 140.559 190.068 140.559 185.487 140.559C185.175 140.581 184.866 140.637 184.567 140.725L184.373 140.872C182.975 140.513 181.613 140.118 180.187 139.786C170.987 137.597 161.787 135.435 152.531 133.226C151.975 133.079 151.481 132.757 151.124 132.306C149.201 129.785 147.342 127.2 145.447 124.661C143.451 121.974 141.426 119.306 139.421 116.628L139.356 116.251L139.384 114.613Z" fill="#FDE7C7"/>
<path d="M75.3404 283.74L88.6992 283.823C88.3404 284.982 87.9815 286.15 87.6319 287.31L78.2016 285.709L75.1104 285.221L75.3404 283.74Z" fill="#FDE7C7"/>
<path d="M98.0379 63.4855C99.4271 62.225 100.798 60.9921 102.206 59.704C103.751 58.2503 104.128 56.2905 104.386 54.3123C104.612 52.1301 105.216 50.0037 106.171 48.0283C106.171 47.9639 106.291 47.9179 106.502 47.9271C106.392 48.2307 106.309 48.5527 106.171 48.8471C105.363 50.6943 104.883 52.6683 104.754 54.6804C104.656 56.0592 104.237 57.396 103.531 58.5845C102.825 59.7729 101.851 60.78 100.688 61.5257C100.014 61.901 99.4395 62.4299 99.0094 63.0694C98.5793 63.709 98.3064 64.441 98.2127 65.206C98.1615 66.2382 98.2544 67.2725 98.4887 68.279C99.3075 71.6741 98.5899 74.9127 97.6515 78.1422C97.552 78.3837 97.4188 78.6098 97.2559 78.8138C97.3125 78.3519 97.3985 77.8939 97.5135 77.4429C98.4128 74.6632 98.6739 71.7164 98.2771 68.8219C98.1874 68.4941 98.0444 68.1832 97.8539 67.9018L98.0379 63.4855Z" fill="#29343A"/>
<path d="M97.8548 67.9573C98.0453 68.2387 98.1883 68.5495 98.278 68.8773C98.6747 71.7719 98.4137 74.7187 97.5143 77.4984C97.3994 77.9494 97.3134 78.4073 97.2567 78.8693H96.7783C97.4645 75.5832 97.8037 72.2342 97.7904 68.8773C97.7904 68.5369 97.8364 68.2425 97.8548 67.9573Z" fill="#29343A"/>
<path d="M74.5679 287.495L76.5919 289.335C76.9684 288.923 77.3743 288.539 77.8064 288.185C78.0456 288.011 78.616 287.937 78.7264 288.084C78.853 288.233 78.9477 288.406 79.0047 288.593C79.0616 288.779 79.0796 288.976 79.0576 289.17C78.9651 289.595 78.7503 289.983 78.4396 290.287C78.129 290.591 77.7362 290.798 77.3095 290.881C76.8178 291.011 76.2999 291.002 75.8129 290.856C75.3258 290.71 74.8886 290.432 74.5495 290.053C74.3839 289.887 74.2366 289.694 74.0802 289.519C73.887 288.728 73.4178 287.928 74.5679 287.495ZM74.3287 288.029C74.2621 288.487 74.3499 288.955 74.578 289.358C74.8062 289.761 75.1619 290.077 75.5891 290.255C76.0307 290.439 76.3159 290.329 76.2883 289.841C76.2607 289.354 75.0923 288.167 74.3287 288.029ZM76.8127 290.504C77.2335 290.468 77.6339 290.307 77.962 290.042C78.2901 289.776 78.5307 289.418 78.6528 289.013C78.7632 288.673 78.7724 288.25 78.1744 288.36C77.7495 288.527 77.3886 288.825 77.1438 289.21C76.899 289.595 76.7831 290.048 76.8127 290.504Z" fill="#48373B"/>
<path d="M130.828 290.338L128.804 292.178C128.427 291.766 128.021 291.382 127.589 291.028C127.35 290.853 126.78 290.78 126.669 290.927C126.543 291.076 126.448 291.249 126.391 291.436C126.334 291.622 126.316 291.819 126.338 292.013C126.43 292.438 126.645 292.826 126.956 293.13C127.267 293.434 127.659 293.641 128.086 293.724C128.578 293.854 129.096 293.845 129.583 293.699C130.07 293.553 130.507 293.275 130.846 292.896C131.012 292.73 131.159 292.537 131.315 292.362C131.508 291.571 131.978 290.771 130.828 290.338ZM131.067 290.872C131.133 291.33 131.046 291.798 130.817 292.201C130.589 292.604 130.234 292.92 129.806 293.098C129.365 293.282 129.08 293.172 129.107 292.684C129.135 292.197 130.303 291.01 131.067 290.872ZM128.583 293.347C128.162 293.311 127.762 293.15 127.434 292.885C127.105 292.619 126.865 292.261 126.743 291.856C126.632 291.516 126.623 291.093 127.221 291.203C127.646 291.37 128.007 291.667 128.252 292.053C128.496 292.438 128.612 292.891 128.583 293.347Z" fill="#48373B"/>
<path d="M96.7773 78.8233H97.2557L95.8389 81.8871L96.7773 78.8233Z" fill="#D6D6D6"/>
<path d="M95.6827 82.2187L94.5879 84.8961L95.6827 82.2187Z" fill="#D6D6D6"/>
<path d="M119.171 168.456L125.436 138.011L125.786 138.085L119.539 168.557L119.171 168.456Z" fill="#D6D6D6"/>
<path d="M98.5166 146.29L98.5902 146.087C100.572 146.141 102.546 145.813 104.405 145.121C106.308 144.414 108.039 143.31 109.483 141.883C108.922 144.183 103.586 146.29 98.5166 146.29Z" fill="#D6D6D6"/>
<path d="M141.5 144.709C140.059 143.196 139.14 141.261 138.878 139.189C138.766 137.761 138.788 136.325 138.942 134.901C139.016 136.143 139.062 137.385 139.172 138.627C139.402 140.546 140.114 142.376 141.242 143.945C141.364 144.175 141.466 144.416 141.546 144.663L141.5 144.709Z" fill="#D6D6D6"/>
<path d="M129.723 136.649C129.858 136.728 129.973 136.837 130.06 136.966C130.148 137.096 130.204 137.244 130.226 137.399C130.248 137.553 130.235 137.711 130.188 137.86C130.141 138.009 130.061 138.146 129.953 138.259C129.755 138.52 129.467 138.696 129.145 138.754C128.823 138.812 128.491 138.747 128.215 138.572C127.962 138.442 127.768 138.219 127.674 137.951C127.58 137.682 127.592 137.387 127.709 137.128C128.003 137.496 128.233 138.048 128.629 138.222C128.849 138.342 129.466 138.084 129.65 137.818C129.834 137.551 129.696 137.063 129.696 136.677L129.723 136.649Z" fill="#D6D6D6"/>
<path d="M127.065 142.38C127.065 142.693 126.899 143.098 127.065 143.3C127.23 143.503 127.819 143.981 127.985 143.889C128.371 143.687 128.619 143.217 128.969 142.803C129.065 143.024 129.082 143.271 129.017 143.503C128.951 143.734 128.808 143.936 128.61 144.073C128.482 144.176 128.335 144.251 128.177 144.295C128.019 144.339 127.854 144.351 127.692 144.329C127.529 144.308 127.373 144.254 127.232 144.17C127.091 144.087 126.968 143.975 126.871 143.843C126.448 143.3 126.43 142.776 127.074 142.371L127.065 142.38Z" fill="#D6D6D6"/>
<path d="M110.771 140.541L111.296 139.722L111.508 139.842L111.02 140.707L110.771 140.541Z" fill="#D6D6D6"/>
<path d="M109.915 141.47L110.504 140.835L110.688 141.001L110.108 141.645L109.915 141.47Z" fill="#D6D6D6"/>
<path d="M141.546 144.672L142.245 145.399L141.519 144.69L141.546 144.672Z" fill="#D6D6D6"/>
<path d="M111.83 139.382L111.701 139.455L111.637 139.271C111.637 139.271 111.747 139.225 111.775 139.271C111.802 139.317 111.812 139.326 111.83 139.382Z" fill="#D6D6D6"/>
<path d="M112.243 138.443L112.427 138.084L112.252 138.443H112.243Z" fill="#D6D6D6"/>
<path d="M129.559 136.493L129.319 136.41L129.365 136.346L129.568 136.475L129.559 136.493Z" fill="#D6D6D6"/>
<path d="M128.555 142.297H128.5V142.215C128.51 142.211 128.521 142.209 128.532 142.209C128.543 142.209 128.554 142.211 128.564 142.215C128.564 142.215 128.545 142.279 128.555 142.297Z" fill="#D6D6D6"/>
<path d="M112.06 138.801L112.244 138.442L112.069 138.801H112.06Z" fill="#D6D6D6"/>
<path d="M112.427 138.085L112.491 137.845L112.556 137.891L112.427 138.094V138.085Z" fill="#D6D6D6"/>
<path d="M142.604 145.758L142.779 145.942L142.604 145.767V145.758Z" fill="#D6D6D6"/>
<path d="M142.42 145.582L142.595 145.757L142.411 145.573L142.42 145.582Z" fill="#D6D6D6"/>
<path d="M142.245 145.371L142.42 145.555L142.245 145.38V145.371Z" fill="#D6D6D6"/>
<path d="M142.77 145.943L142.945 146.127L142.761 145.952L142.77 145.943Z" fill="#D6D6D6"/>
<path d="M112.076 138.812L111.985 138.884L112.058 138.803L112.076 138.812Z" fill="#D6D6D6"/>
<path d="M129.567 136.474L129.751 136.649L129.586 136.465L129.567 136.474Z" fill="#D6D6D6"/>
<path d="M127.056 142.371L127.137 142.289L127.065 142.38L127.056 142.371Z" fill="#D6D6D6"/>
<path d="M142.944 146.126L143.026 146.198H142.972V146.135L142.944 146.126Z" fill="#D6D6D6"/>
<path d="M100.623 128.027C100.378 128.311 100.097 128.562 99.7859 128.772C99.6101 128.854 99.4185 128.896 99.2246 128.896C99.0307 128.895 98.8392 128.852 98.6637 128.77C98.4882 128.687 98.333 128.567 98.209 128.418C98.0849 128.269 97.9951 128.095 97.9459 127.907C97.2098 125.984 96.5106 124.052 95.793 122.12C94.4038 118.072 92.9501 114.042 91.6621 109.957C90.5728 106.811 90.1102 103.482 90.3004 100.158C90.3969 99.3988 90.5383 98.6461 90.7237 97.9037C90.9218 97.9055 91.1194 97.8839 91.3125 97.8393C95.7099 96.1383 100.343 95.1236 105.048 94.8306H106.889V94.573H104.358L102.748 94.7018C98.5603 94.9528 94.4651 96.0416 90.7053 97.9037C91.5384 93.8687 93.9113 90.3174 97.3202 88.0037C100.635 85.7948 104.352 84.2598 108.259 83.4862C108.682 86.7937 108.61 90.1456 108.048 93.4321C107.91 94.1866 107.845 94.9594 107.726 95.7231C107.581 96.232 107.602 96.7738 107.786 97.27C107.969 97.7662 108.306 98.1911 108.747 98.4833C109.223 98.7365 109.759 98.8525 110.297 98.8184C110.835 98.7842 111.352 98.6014 111.792 98.2901C114.184 96.9652 115.15 94.7202 115.601 92.1716C116.144 89.117 115.39 86.1544 115.003 83.1549C114.856 82.0417 114.819 80.9192 114.727 79.7967L118.104 79.4011V79.7507L117.966 80.6708C117.755 81.901 117.846 83.1641 118.232 84.351C118.409 84.8507 118.437 85.3904 118.315 85.906C116.583 92.8803 114.151 99.6619 111.056 106.147C108.121 112.413 105.03 118.596 102.022 124.825C101.543 125.846 101.102 126.969 100.623 128.027ZM109.216 108.816L109.336 108.871H109.207C109.165 108.646 109.097 108.427 109.005 108.218C107.411 105.603 106.191 102.779 105.38 99.8266C105.223 99.2378 105.058 98.6489 104.892 98.0693C104.765 98.3127 104.732 98.5945 104.8 98.8605C105.16 100.426 105.634 101.964 106.217 103.461C107.063 105.273 108.204 107.012 109.216 108.816ZM106.456 105.835C103.365 105.945 95.839 110.223 94.8822 112.422C98.2582 109.474 102.186 107.226 106.438 105.807L106.456 105.835ZM94.9006 112.358L94.689 112.156L93.2997 113.609L93.4101 113.729L94.9006 112.358Z" fill="#FFD100"/>
<path d="M118.858 49.3701C119.235 49.7381 119.594 50.1245 119.989 50.4742C120.314 50.8225 120.747 51.051 121.218 51.1228C121.689 51.1946 122.17 51.1055 122.584 50.8698C123.504 50.3546 123.559 49.4897 123.384 48.5696L123.541 48.4408C123.936 48.7536 124.314 49.0849 124.728 49.3609C125.134 49.7353 125.666 49.9431 126.218 49.9431C126.77 49.9431 127.302 49.7353 127.709 49.3609C128.034 50.2607 128.292 51.1833 128.481 52.1211C129.043 56.2338 129.604 60.3465 130.036 64.4776C130.232 66.5466 129.803 68.6268 128.803 70.4489C128.656 69.9504 128.442 69.4739 128.169 69.032C127.884 68.7426 127.498 68.5772 127.092 68.572C126.641 68.572 126.338 68.8388 126.31 69.4276C126.246 70.8905 126.089 72.3442 125.96 73.8072L124.93 74.2304L124.737 71.1941C124.741 70.9812 124.707 70.7691 124.636 70.5685C124.36 70.0441 123.835 69.6484 123.348 69.9705C122.858 70.3515 122.511 70.8863 122.363 71.4886C122.143 72.6019 121.98 73.7259 121.876 74.856C120.956 74.6904 120.155 74.5248 119.364 74.4144C118.968 74.3592 118.554 74.4604 118.168 74.4144C117.248 74.2488 116.263 74.028 115.316 73.8256C115.025 72.9652 114.656 72.1336 114.212 71.3414C113.686 70.6886 113.351 69.9025 113.245 69.0707C113.14 68.2389 113.267 67.3942 113.614 66.6306C115.021 63.7508 114.534 61.0274 113.292 58.258C112.221 55.8282 111.802 53.1612 112.077 50.5202C112.087 50.372 112.105 50.2245 112.132 50.0785C112.132 49.8853 112.224 49.6829 112.224 49.6829C113.12 50.4388 114.077 51.1189 115.086 51.7163C116.65 52.4983 118.481 52.0567 118.563 49.3701H118.858ZM120.698 54.7065L120.514 54.4489L120.588 54.8077C120.652 55.0038 120.732 55.1946 120.827 55.3781C121.826 57.2674 122.839 59.1443 123.863 61.009C124.185 61.5794 124.176 61.929 123.43 62.0763C123.056 62.1775 122.69 62.3066 122.336 62.4627C122.811 62.4982 123.289 62.4578 123.752 62.3431C123.898 62.339 124.04 62.2952 124.162 62.2166C124.285 62.1379 124.383 62.0274 124.448 61.8967C124.512 61.7661 124.54 61.6204 124.527 61.4754C124.515 61.3303 124.463 61.1913 124.378 61.0734C123.154 58.9296 121.903 56.8227 120.67 54.7065H120.698ZM124.203 65.6277C124.203 65.1309 124.111 64.542 123.283 64.5328C122.946 64.5352 122.621 64.6609 122.37 64.8864C122.119 65.1119 121.96 65.4214 121.922 65.7565C121.902 65.9255 121.92 66.0966 121.974 66.2579C122.028 66.4193 122.116 66.5669 122.233 66.6905C122.35 66.8141 122.492 66.9108 122.65 66.9737C122.808 67.0366 122.978 67.0643 123.148 67.0547C123.318 67.0452 123.483 66.9988 123.633 66.9186C123.783 66.8385 123.914 66.7265 124.016 66.5906C124.118 66.4548 124.19 66.2982 124.225 66.1319C124.261 65.9656 124.259 65.7935 124.222 65.6277H124.203ZM113.246 55.7462L117.846 54.5409C117.475 54.2814 117.053 54.1057 116.607 54.026C116.162 53.9462 115.704 53.9643 115.267 54.0789C114.829 54.1936 114.422 54.4021 114.073 54.69C113.724 54.9779 113.441 55.3383 113.246 55.7462ZM126.65 52.7467C126.421 52.3913 126.083 52.1194 125.687 51.9718C125.291 51.8242 124.857 51.8088 124.452 51.9279C123.844 52.0567 123.191 52.2591 123.044 53.1516L126.65 52.7467ZM118.186 56.9239C117.936 56.702 117.64 56.5374 117.319 56.4416C116.999 56.3459 116.661 56.3212 116.33 56.3694C115.999 56.4176 115.682 56.5375 115.402 56.7206C115.122 56.9038 114.885 57.1458 114.709 57.4299L118.186 56.9239ZM117.137 57.4299H116.751C116.53 57.7335 116.125 58.0555 116.144 58.35C116.162 58.6444 116.631 59.132 116.861 59.1136C117.054 59.0724 117.233 58.9845 117.384 58.8578C117.535 58.7311 117.652 58.5694 117.726 58.3868C117.763 58.12 117.349 57.7519 117.137 57.4299ZM127.074 56.4178C126.568 56.0406 126.255 55.6174 125.997 55.6542C125.74 55.691 125.399 56.1234 125.077 56.381C125.353 56.657 125.611 57.0987 125.942 57.1723C126.273 57.2459 126.549 56.795 127.074 56.4178ZM127.074 54.7065C126.835 54.4836 126.549 54.318 126.236 54.2221C125.924 54.1263 125.594 54.1027 125.272 54.1533C124.949 54.2038 124.642 54.3271 124.374 54.5138C124.106 54.7005 123.884 54.9457 123.725 55.2309L127.074 54.7065Z" fill="#FDE7C7"/>
<path d="M115.316 73.8074C116.236 74.0098 117.212 74.2306 118.168 74.3963C118.555 74.4607 118.969 74.3963 119.364 74.3963C120.156 74.5067 120.947 74.6723 121.876 74.8379C121.981 73.7139 122.144 72.5961 122.364 71.4888C122.519 70.8827 122.876 70.3474 123.376 69.9707C123.863 69.6303 124.388 70.0443 124.664 70.5688C124.735 70.7694 124.77 70.9814 124.765 71.1944L124.958 74.2306C124.839 74.3594 124.609 74.4791 124.609 74.5987C124.609 75.8408 124.701 77.0737 124.783 78.279C124.783 78.279 125.059 78.3434 125.207 78.3802L125.317 78.463L124.848 79.1162C124.635 78.9401 124.443 78.7394 124.277 78.5182C124.141 78.2862 124.065 78.0236 124.057 77.7545C124.057 76.218 124.057 74.6723 124.057 73.1542C124.057 72.4457 124.204 71.7372 124.158 71.038C124.158 70.7712 123.771 70.5228 123.569 70.2651C123.403 70.4859 123.127 70.67 123.081 70.9092C122.713 72.5837 122.4 74.2582 122.06 75.9328C121.839 77.0185 121.609 78.0949 121.388 79.1806H120.468C120.579 79.6867 120.064 80.3215 120.781 80.7079C120.579 81.1772 120.294 81.1588 120.11 80.7079C119.969 80.3513 119.909 79.9679 119.935 79.5855C120.008 78.555 120.156 77.5337 120.248 76.5032C120.308 76.0914 120.308 75.673 120.248 75.2611C120.21 75.1311 120.145 75.011 120.056 74.9092C119.967 74.8074 119.856 74.7265 119.732 74.6723C119.613 74.6723 119.282 74.9023 119.18 75.1047C119.038 75.4607 118.933 75.8308 118.868 76.2088C118.619 77.2301 118.38 78.2514 118.132 79.2726C118.266 78.5882 118.364 77.8972 118.426 77.2025C118.416 77.048 118.373 76.8975 118.3 76.7611C118.227 76.6246 118.126 76.5053 118.003 76.4112C117.129 75.8408 116.163 75.3347 115.298 74.8011L115.316 73.8074Z" fill="#29343A"/>
<path d="M125.989 73.8085C126.118 72.3456 126.274 70.8919 126.338 69.429C126.338 68.8402 126.67 68.5733 127.12 68.5733C127.526 68.5786 127.913 68.744 128.197 69.0334C128.471 69.4753 128.684 69.9518 128.832 70.4503C128.74 71.2967 128.666 72.1432 128.565 72.9897C128.372 74.7562 128.169 76.5227 127.976 78.2893C127.958 78.4575 127.958 78.6271 127.976 78.7953L128.197 78.8505C128.297 78.5494 128.377 78.2421 128.436 77.9304C128.749 76.0075 129.016 74.0662 129.356 72.1524C129.497 71.5463 129.757 70.9741 130.12 70.4687C130.222 70.3368 130.356 70.2319 130.508 70.1629C130.66 70.094 130.827 70.0632 130.994 70.0731C131.14 70.1486 131.263 70.2618 131.35 70.4009C131.437 70.5401 131.486 70.7001 131.491 70.8643C131.38 72.3088 131.169 73.7349 131.012 75.1794C130.874 76.4583 130.745 77.7464 130.617 79.0345L130.929 79.1173C131.063 78.8174 131.18 78.5102 131.279 78.1973C131.638 77.0012 131.96 75.8051 132.328 74.6182C132.467 74.2923 132.643 73.9836 132.852 73.6981L132.944 73.7993C132.447 75.4739 132.024 77.1484 131.435 78.8137C131.343 79.1173 130.985 79.3382 130.755 79.5958C130.571 79.283 130.239 78.9701 130.239 78.6757C130.285 77.5944 130.39 76.5163 130.552 75.4463C130.718 74.103 130.975 72.7597 131.141 71.4164C131.141 71.1587 130.957 70.8735 130.856 70.6067C130.617 70.7999 130.258 70.9471 130.175 71.1863C129.792 72.3336 129.485 73.5046 129.255 74.6918C129.034 75.9063 129.043 77.1668 128.832 78.3721C128.776 78.7125 128.316 78.9885 128.05 79.2922C127.847 78.9793 127.525 78.6849 127.47 78.3721C127.436 77.9004 127.47 77.4263 127.571 76.9644C128.021 74.6359 128.096 72.2503 127.792 69.8982C127.693 69.5706 127.544 69.2602 127.35 68.9782C127.148 69.3002 126.798 69.6038 126.762 69.8982C126.522 71.6832 126.43 73.4865 126.164 75.2714C125.949 76.3286 125.676 77.373 125.345 78.3997L125.234 78.3169C125.474 76.8816 125.731 75.3451 125.989 73.8085Z" fill="#29343A"/>
<path d="M102.703 81.0494C102.897 80.2091 103.041 79.3581 103.136 78.5008C103.214 77.0021 103.214 75.5004 103.136 74.0017C102.91 71.1987 103.697 68.4078 105.353 66.1351C106.786 64.4345 107.969 62.5385 108.867 60.5042C109.603 58.4617 109.318 56.4375 108.95 54.3858C108.383 51.9137 108.658 49.3229 109.732 47.0252C109.732 47.246 109.64 47.4668 109.585 47.6877C109.53 47.9085 109.438 48.1937 109.383 48.4513C108.968 50.8417 109.033 53.2908 109.576 55.6555C109.842 57.0862 109.796 58.5575 109.442 59.969C109.088 61.3806 108.434 62.6992 107.524 63.8349C106.403 65.2841 105.403 66.8227 104.534 68.4352C104.037 69.5311 103.753 70.7113 103.697 71.9131C103.568 73.7532 103.761 75.5934 103.642 77.4335C103.496 78.6733 103.272 79.9025 102.97 81.1138L102.703 81.0494Z" fill="#29343A"/>
<path d="M115.298 74.903C116.218 75.4366 117.138 75.9426 118.003 76.5131C118.125 76.6072 118.227 76.7265 118.3 76.8629C118.373 76.9994 118.416 77.1499 118.426 77.3043C118.364 77.999 118.266 78.69 118.131 79.3745L114.755 79.7701C114.939 78.1416 115.114 76.5223 115.298 74.903Z" fill="#F8BC9D"/>
<path d="M104.386 94.566H106.226C106.226 94.6488 106.226 94.7316 106.226 94.8236H105.113C100.407 95.1166 95.7743 96.1313 91.3769 97.8322C91.1839 97.8769 90.9862 97.8985 90.7881 97.8967C94.5479 96.0346 98.6431 94.9458 102.831 94.6948L104.386 94.566Z" fill="#29343A"/>
<path d="M114.23 41.4041C117.276 39.564 122.722 42.5726 122.649 48.8843C121.756 44.1643 119.971 40.53 114.23 41.4041Z" fill="#29343A"/>
<path d="M132.806 80.5607L132.254 81.7016C132.346 81.2784 132.429 80.846 132.512 80.4227C132.898 78.4722 133.294 76.5216 133.662 74.5711C133.744 74.1111 133.662 73.7062 133.008 73.8902L132.916 73.789C133.192 73.697 133.588 73.4578 133.726 73.559C133.843 73.6608 133.934 73.789 133.992 73.933C134.049 74.077 134.072 74.2327 134.057 74.3871C133.754 76.1628 133.386 77.9293 133.027 79.7051C132.972 79.9903 132.88 80.2755 132.806 80.5607Z" fill="#FDE7C7"/>
<path d="M118.565 49.2775L118.519 48.9555H118.611L118.693 49.2039L118.565 49.2775Z" fill="#F8BC9D"/>
<path d="M123.385 48.571V48.249L123.569 48.4422L123.385 48.571Z" fill="#F8BC9D"/>
<path d="M118.858 49.3706H118.563V49.297L118.692 49.1958L118.858 49.3706Z" fill="#F8BC9D"/>
<path d="M133.009 73.8922C133.653 73.7082 133.745 74.113 133.662 74.5731C133.294 76.5236 132.898 78.4742 132.512 80.4247C132.429 80.8479 132.346 81.2804 132.254 81.7036C132.199 81.8876 132.144 82.0716 132.079 82.2649C132.073 82.3133 132.057 82.36 132.033 82.4029C132.033 82.5317 131.951 82.6697 131.905 82.7985C131.899 82.8472 131.884 82.8942 131.859 82.9365L131.721 83.3321C131.73 83.3777 131.73 83.4246 131.721 83.4701L131.583 83.8566C131.572 83.9099 131.556 83.9622 131.537 84.013L131.399 84.381L131.343 84.5466C131.297 84.6662 131.251 84.7858 131.215 84.9054C130.828 86.0187 130.433 87.132 130.083 88.2545C130.009 88.655 129.972 89.0616 129.973 89.469C129.715 90.3891 129.448 91.3827 129.2 92.3396C128.255 95.8911 127.311 99.4395 126.366 102.985C126.302 103.242 126.265 103.5 126.219 103.758C125.299 106.325 124.452 108.91 123.459 111.449C121.435 116.694 119.135 121.8 115.482 126.171C113.789 128.204 111.866 129.98 109.217 130.651C108.055 130.854 106.881 130.977 105.702 131.019C104.552 130.495 103.365 130.044 102.252 129.437C101.675 129.037 101.138 128.581 100.651 128.075C101.13 126.989 101.571 125.895 102.087 124.827C105.095 118.598 108.186 112.416 111.121 106.15C114.216 99.6643 116.648 92.8827 118.38 85.9083C118.502 85.3928 118.474 84.853 118.297 84.3534C117.911 83.1665 117.82 81.9034 118.031 80.6731L118.169 79.7531V79.4034C118.417 78.3822 118.656 77.3609 118.905 76.3396C118.97 75.9616 119.075 75.5915 119.218 75.2355C119.319 75.0331 119.65 74.7571 119.77 74.8031C119.893 74.8573 120.004 74.9382 120.093 75.04C120.182 75.1418 120.247 75.2619 120.285 75.3919C120.345 75.8038 120.345 76.2222 120.285 76.634C120.193 77.6645 120.046 78.6858 119.972 79.7163C119.947 80.0987 120.006 80.4821 120.147 80.8387C120.331 81.2528 120.616 81.2712 120.818 80.8387L121.002 80.4891L121.196 79.9647L121.361 79.4126C121.367 79.3581 121.382 79.305 121.407 79.2562C121.628 78.1705 121.858 77.0941 122.079 76.0084C122.419 74.3338 122.732 72.6593 123.1 70.9848C123.146 70.7456 123.422 70.5616 123.588 70.3407C123.79 70.5984 124.158 70.8468 124.176 71.1136C124.222 71.8129 124.094 72.5213 124.075 73.2298C124.075 74.7663 124.075 76.312 124.075 77.8301C124.083 78.0992 124.159 78.3618 124.296 78.5938C124.462 78.815 124.653 79.0157 124.866 79.1918L125.336 78.5386C125.667 77.5119 125.94 76.4675 126.155 75.4103C126.421 73.6254 126.513 71.8221 126.753 70.0371C126.753 69.6967 127.139 69.3931 127.341 69.1171C127.535 69.3991 127.684 69.7095 127.783 70.0371C128.087 72.3892 128.012 74.7748 127.562 77.1033C127.461 77.5651 127.427 78.0393 127.461 78.511C127.516 78.8514 127.838 79.1458 128.041 79.431C128.307 79.1274 128.767 78.8514 128.823 78.511C129.034 77.2873 129.025 76.0268 129.246 74.8307C129.476 73.6434 129.783 72.4725 130.166 71.3252C130.249 71.086 130.607 70.9388 130.847 70.7456C130.948 71.0124 131.169 71.2976 131.132 71.5552C130.966 72.8985 130.709 74.2418 130.543 75.5851C130.4 76.6716 130.318 77.7651 130.295 78.8606C130.295 79.1734 130.626 79.4862 130.81 79.7807C131.04 79.523 131.399 79.3022 131.491 78.9986C132.043 77.2873 132.484 75.5667 133.009 73.8922Z" fill="#FDE7C7"/>
<path d="M133.477 129.849C126.741 132.233 119.637 133.41 112.492 133.327C111.516 133.327 110.532 133.263 109.557 133.235L108.701 132.959C109.768 132.959 110.836 132.904 111.903 132.959C118.667 133.041 125.401 132.057 131.858 130.043C132.226 129.932 132.603 129.84 132.971 129.739L133.477 129.849Z" fill="#29343A"/>
<path d="M139.384 114.614V116.298L139.044 116.519C138.888 114.679 138.722 112.746 138.584 110.851C138.14 105.948 137.325 101.085 136.146 96.3048C135.925 95.3204 135.704 94.3359 135.548 93.3422C137.681 100.252 138.969 107.395 139.384 114.614Z" fill="#523538"/>
<path d="M120.184 120.805C126.238 121.016 132.279 120.109 138.005 118.128C132.422 120.637 126.257 121.563 120.184 120.805Z" fill="#29343A"/>
<path d="M129.936 89.4398C132.54 88.8499 135.027 87.83 137.296 86.422L137.425 86.6428C136.723 87.1497 135.995 87.6196 135.244 88.0505C133.624 88.9625 131.795 89.441 129.936 89.4398Z" fill="#29343A"/>
<path d="M126.182 103.719C127.534 103.719 128.896 103.655 130.257 103.636C131.619 103.618 133.155 103.636 134.609 103.71C131.819 104.164 128.973 104.167 126.182 103.719Z" fill="#29343A"/>
<path d="M142.972 94.9784C141.524 96.6534 139.598 97.8446 137.452 98.3918L142.972 94.9784Z" fill="#29343A"/>
<path d="M139.007 116.517L139.347 116.296L139.412 116.673C139.412 118.394 139.412 120.114 139.347 121.844C139.321 122.153 139.278 122.46 139.218 122.764C139.145 120.703 139.08 118.614 139.007 116.517Z" fill="#606368"/>
<path d="M133.478 129.85L132.972 129.702L137.903 127.862L138.013 128.147L133.478 129.85Z" fill="#29343A"/>
<path d="M108.701 132.96L109.557 133.236L105.996 132.887V132.666L108.701 132.96Z" fill="#29343A"/>
<path d="M132.079 82.255C132.144 82.0618 132.199 81.8778 132.254 81.6938C132.199 81.887 132.144 82.0618 132.079 82.255Z" fill="#FDE7C7"/>
<path d="M131.168 84.8931C131.168 84.7735 131.251 84.6539 131.297 84.5343C131.251 84.6447 131.205 84.7735 131.168 84.8931Z" fill="#FDE7C7"/>
<path d="M131.563 83.8451L131.701 83.4587L131.563 83.8451Z" fill="#FDE7C7"/>
<path d="M131.353 84.3695L131.491 84.0015L131.353 84.3695Z" fill="#FDE7C7"/>
<path d="M131.904 82.8061C131.904 82.6773 131.996 82.5393 132.033 82.4105C131.996 82.5209 131.95 82.6589 131.904 82.8061Z" fill="#FDE7C7"/>
<path d="M131.721 83.3208L131.859 82.9252L131.721 83.3208Z" fill="#FDE7C7"/>
<path d="M74.3293 288.029C75.0929 288.167 76.2521 289.234 76.2889 289.869C76.3257 290.504 76.0313 290.467 75.5897 290.283C75.1573 290.103 74.7979 289.783 74.5693 289.374C74.3408 288.965 74.2562 288.492 74.3293 288.029Z" fill="#FFD100"/>
<path d="M131.067 290.872C130.304 291.01 129.144 292.077 129.108 292.712C129.071 293.347 129.365 293.31 129.807 293.126C130.239 292.946 130.599 292.626 130.827 292.217C131.056 291.808 131.14 291.334 131.067 290.872Z" fill="#FFD100"/>
<path d="M76.8135 290.503C76.7859 290.044 76.9058 289.589 77.1558 289.203C77.4058 288.817 77.7726 288.522 78.2027 288.36C78.8007 288.249 78.7915 288.672 78.6811 289.013C78.5573 289.421 78.3125 289.782 77.979 290.048C77.6455 290.315 77.2391 290.473 76.8135 290.503Z" fill="#FFD100"/>
<path d="M128.583 293.346C128.611 292.887 128.491 292.432 128.241 292.046C127.991 291.66 127.624 291.365 127.194 291.203C126.596 291.092 126.605 291.515 126.715 291.856C126.839 292.264 127.084 292.625 127.417 292.891C127.751 293.158 128.157 293.316 128.583 293.346Z" fill="#FFD100"/>
<path d="M106.438 105.808C102.182 107.216 98.2481 109.455 94.8643 112.396C95.8211 110.224 103.347 105.946 106.438 105.808Z" fill="#29343A"/>
<path d="M109.216 108.817C108.204 106.976 107.064 105.274 106.217 103.397C105.634 101.9 105.16 100.363 104.8 98.797C104.732 98.5309 104.765 98.2491 104.892 98.0057C105.058 98.5854 105.223 99.1742 105.38 99.7631C106.191 102.716 107.411 105.54 109.005 108.154C109.097 108.363 109.165 108.583 109.207 108.807L109.216 108.817Z" fill="#523538"/>
<path d="M94.8821 112.358L93.3917 113.729L93.2812 113.609L94.6705 112.156L94.8821 112.358Z" fill="#F6DAD8"/>
<path d="M106.171 94.8236C106.171 94.7316 106.171 94.6488 106.171 94.566H106.907V94.8236H106.171Z" fill="#FDE7C7"/>
<path d="M104.386 94.566L102.776 94.6948L104.386 94.566Z" fill="#FDE7C7"/>
<path d="M118.141 79.7233L118.003 80.6433L118.141 79.7233Z" fill="#FDE7C7"/>
<path d="M109.207 108.826H109.336L109.216 108.77L109.207 108.826Z" fill="#523538"/>
<path d="M125.988 73.8069C125.731 75.3435 125.473 76.88 125.206 78.4073C125.059 78.4073 124.783 78.3521 124.783 78.3061C124.7 77.064 124.645 75.8311 124.608 74.6258C124.608 74.5062 124.838 74.3866 124.958 74.2578L125.988 73.8069Z" fill="#3B373B"/>
<path d="M124.204 65.6277C124.242 65.7935 124.243 65.9655 124.208 66.1319C124.172 66.2982 124.101 66.4547 123.999 66.5906C123.896 66.7265 123.766 66.8384 123.616 66.9186C123.466 66.9988 123.3 67.0452 123.13 67.0547C122.96 67.0642 122.791 67.0366 122.633 66.9736C122.475 66.9107 122.332 66.8141 122.216 66.6905C122.099 66.5669 122.01 66.4192 121.957 66.2579C121.903 66.0966 121.885 65.9255 121.904 65.7565C121.942 65.4182 122.105 65.1062 122.36 64.8803C122.614 64.6544 122.943 64.5306 123.284 64.5328C124.121 64.542 124.204 65.1309 124.204 65.6277Z" fill="#FDE7C7"/>
<path d="M120.671 54.7064C121.904 56.8226 123.155 58.9295 124.351 61.0733C124.436 61.1912 124.488 61.3302 124.5 61.4753C124.513 61.6204 124.485 61.7661 124.421 61.8967C124.356 62.0273 124.258 62.1379 124.135 62.2165C124.013 62.2951 123.871 62.3389 123.725 62.343C123.262 62.4577 122.784 62.4981 122.309 62.4626C122.663 62.3066 123.029 62.1774 123.403 62.0762C124.149 61.9382 124.158 61.5793 123.836 61.0089C122.818 59.1688 121.806 57.2918 120.8 55.3781C120.705 55.1945 120.625 55.0038 120.561 54.8076L120.671 54.7064Z" fill="#FDE7C7"/>
<path d="M113.246 55.7462C113.442 55.3383 113.724 54.978 114.073 54.6901C114.422 54.4022 114.83 54.1936 115.267 54.079C115.705 53.9643 116.162 53.9462 116.608 54.026C117.053 54.1058 117.476 54.2815 117.846 54.5409L113.246 55.7462Z" fill="#FDE7C7"/>
<path d="M126.65 52.7486L123.044 53.1534C123.191 52.2333 123.844 52.0585 124.452 51.9297C124.857 51.8106 125.291 51.8261 125.687 51.9737C126.083 52.1212 126.421 52.3931 126.65 52.7486Z" fill="#FDE7C7"/>
<path d="M118.187 56.9232L114.709 57.4293C114.886 57.1452 115.123 56.9032 115.403 56.72C115.683 56.5368 115.999 56.417 116.33 56.3688C116.661 56.3206 116.999 56.3453 117.32 56.441C117.64 56.5368 117.936 56.7014 118.187 56.9232Z" fill="#FDE7C7"/>
<path d="M117.138 57.4295C117.349 57.7515 117.782 58.1196 117.727 58.3496C117.653 58.5322 117.535 58.6939 117.385 58.8206C117.234 58.9473 117.054 59.0352 116.862 59.0765C116.632 59.0765 116.163 58.598 116.144 58.3128C116.126 58.0276 116.531 57.6871 116.751 57.3927L117.138 57.4295Z" fill="#FDE7C7"/>
<path d="M127.074 56.419C126.55 56.7963 126.209 57.2287 125.97 57.1735C125.731 57.1183 125.381 56.6582 125.105 56.3822C125.4 56.1246 125.676 55.7106 126.025 55.6554C126.375 55.6002 126.568 56.0418 127.074 56.419Z" fill="#FDE7C7"/>
<path d="M127.102 54.7083L123.753 55.2327C123.912 54.9475 124.134 54.7023 124.402 54.5156C124.67 54.3289 124.977 54.2056 125.3 54.1551C125.622 54.1045 125.952 54.1281 126.265 54.2239C126.577 54.3198 126.863 54.4854 127.102 54.7083Z" fill="#FDE7C7"/>
<path d="M120.524 54.8087L120.45 54.4499L120.634 54.7075L120.524 54.8087Z" fill="#FDE7C7"/>
<path d="M121.389 79.2C121.364 79.2488 121.348 79.3018 121.343 79.3564L121.177 79.9084L120.984 80.4328L120.8 80.7825C120.082 80.396 120.597 79.7612 120.487 79.2552L121.389 79.2Z" fill="#FFD100"/>
<path d="M121.177 79.9088L121.342 79.3568L121.177 79.9088Z" fill="#FDE7C7"/>
<path d="M120.983 80.4335L121.177 79.9091L120.983 80.4335Z" fill="#FDE7C7"/>
<path d="M120.8 80.782L120.984 80.4324L120.8 80.782Z" fill="#FDE7C7"/>
<path d="M186.103 142.943L185.919 142.593L185.983 142.538L186.232 142.842L186.103 142.943Z" fill="#732424"/>
<path d="M185.358 141.186C185.358 141.186 185.284 141.269 185.248 141.269C185.211 141.269 185.165 141.269 185.128 141.204C185.091 141.14 185.192 141.103 185.238 141.103C185.284 141.103 185.321 141.149 185.358 141.186Z" fill="#3B373B"/>
<path d="M185.919 142.611L185.781 142.39L185.984 142.555L185.919 142.611Z" fill="#732424"/>
<path d="M185.662 142.325V142.27C185.662 142.27 185.662 142.27 185.718 142.27L185.662 142.334V142.325Z" fill="#732424"/>
<path d="M413.92 345.845H360.319V346.609H413.92V345.845Z" fill="white"/>
<path d="M399.365 346.416H398.602V353.501H399.365V346.416Z" fill="white"/>
<path d="M376.015 346.416H375.251V353.501H376.015V346.416Z" fill="white"/>
<path d="M297.536 353.885H243.936V354.649H297.536V353.885Z" fill="white"/>
<path d="M282.982 354.457H282.219V361.541H282.982V354.457Z" fill="white"/>
<path d="M259.632 354.457H258.868V361.541H259.632V354.457Z" fill="white"/>
<path d="M284.5 188.394L282.834 192.525C281.914 194.761 280.783 196.813 281.362 199.297C281.442 199.972 281.767 200.594 282.276 201.043C282.786 201.493 283.443 201.74 284.122 201.735C285.907 201.983 288.051 201.468 288.888 199.711C289.283 198.777 289.332 197.733 289.026 196.767C288.324 194.889 287.397 193.103 286.266 191.449C285.861 190.731 285.447 190.022 285.033 189.314C284.978 189.204 284.454 188.504 284.5 188.394Z" fill="#333533"/>
<path d="M254.01 210.697C254.369 210.301 254.783 209.952 254.995 209.777C257.332 207.514 260.11 205.278 263.606 205.903C265.602 206.406 267.412 207.469 268.823 208.967C269.163 209.28 269.513 209.749 269.31 210.154C269.201 210.327 269.04 210.462 268.85 210.541C268.05 210.897 267.2 211.126 266.329 211.221C264.241 211.553 262.134 211.829 260.027 212.086C258.978 212.215 257.92 212.335 256.872 212.482C255.951 212.706 254.997 212.762 254.056 212.648C252.814 212.353 253.329 211.479 254.01 210.697Z" fill="#333533"/>
<path d="M242.951 201.993C244.46 201.993 245.684 200.769 245.684 199.26C245.684 197.751 244.46 196.528 242.951 196.528C241.442 196.528 240.219 197.751 240.219 199.26C240.219 200.769 241.442 201.993 242.951 201.993Z" fill="#333533"/>
<path d="M271.969 201.817C273.478 201.817 274.701 200.593 274.701 199.084C274.701 197.575 273.478 196.351 271.969 196.351C270.46 196.351 269.236 197.575 269.236 199.084C269.236 200.593 270.46 201.817 271.969 201.817Z" fill="#333533"/>
<path d="M210.193 141.24C209.366 141.24 208.593 141.093 207.873 140.8C207.153 140.507 206.526 140.073 205.993 139.5C205.473 138.927 205.059 138.22 204.753 137.38C204.446 136.54 204.293 135.58 204.293 134.5C204.293 133.433 204.446 132.48 204.753 131.64C205.073 130.787 205.499 130.067 206.033 129.48C206.579 128.893 207.213 128.447 207.933 128.14C208.666 127.833 209.446 127.68 210.273 127.68C211.099 127.68 211.833 127.847 212.473 128.18C213.113 128.513 213.639 128.9 214.053 129.34L212.813 130.84C212.466 130.493 212.093 130.22 211.693 130.02C211.293 129.807 210.839 129.7 210.333 129.7C209.799 129.7 209.306 129.813 208.853 130.04C208.413 130.253 208.026 130.567 207.693 130.98C207.373 131.38 207.119 131.873 206.933 132.46C206.759 133.047 206.673 133.707 206.673 134.44C206.673 135.933 206.993 137.107 207.633 137.96C208.286 138.8 209.166 139.22 210.273 139.22C210.859 139.22 211.379 139.1 211.833 138.86C212.286 138.607 212.699 138.28 213.073 137.88L214.313 139.34C213.779 139.953 213.166 140.427 212.473 140.76C211.793 141.08 211.033 141.24 210.193 141.24ZM218.676 141.24C217.809 141.24 217.109 140.98 216.576 140.46C216.043 139.927 215.776 139.227 215.776 138.36C215.776 137.84 215.883 137.38 216.096 136.98C216.323 136.567 216.669 136.213 217.136 135.92C217.616 135.627 218.216 135.38 218.936 135.18C219.669 134.98 220.543 134.827 221.556 134.72C221.543 134.467 221.503 134.227 221.436 134C221.383 133.76 221.283 133.553 221.136 133.38C221.003 133.193 220.823 133.053 220.596 132.96C220.369 132.853 220.089 132.8 219.756 132.8C219.276 132.8 218.803 132.893 218.336 133.08C217.883 133.267 217.436 133.493 216.996 133.76L216.156 132.22C216.703 131.873 217.316 131.573 217.996 131.32C218.676 131.067 219.409 130.94 220.196 130.94C221.423 130.94 222.336 131.307 222.936 132.04C223.549 132.76 223.856 133.807 223.856 135.18V141H221.956L221.796 139.92H221.716C221.276 140.293 220.803 140.607 220.296 140.86C219.803 141.113 219.263 141.24 218.676 141.24ZM219.416 139.44C219.816 139.44 220.176 139.347 220.496 139.16C220.829 138.973 221.183 138.707 221.556 138.36V136.16C220.889 136.24 220.329 136.347 219.876 136.48C219.423 136.613 219.056 136.767 218.776 136.94C218.496 137.1 218.296 137.287 218.176 137.5C218.056 137.713 217.996 137.94 217.996 138.18C217.996 138.62 218.129 138.94 218.396 139.14C218.663 139.34 219.003 139.44 219.416 139.44ZM226.608 141V131.18H228.508L228.668 132.92H228.748C229.095 132.28 229.515 131.793 230.008 131.46C230.502 131.113 231.008 130.94 231.528 130.94C231.995 130.94 232.368 131.007 232.648 131.14L232.248 133.14C232.075 133.087 231.915 133.047 231.768 133.02C231.622 132.993 231.442 132.98 231.228 132.98C230.842 132.98 230.435 133.133 230.008 133.44C229.582 133.733 229.215 134.253 228.908 135V141H226.608ZM237.529 141.24C236.956 141.24 236.469 141.153 236.069 140.98C235.683 140.807 235.363 140.567 235.109 140.26C234.869 139.94 234.689 139.567 234.569 139.14C234.463 138.7 234.409 138.213 234.409 137.68V133H233.009V131.28L234.529 131.18L234.809 128.5H236.729V131.18H239.229V133H236.729V137.68C236.729 138.827 237.189 139.4 238.109 139.4C238.283 139.4 238.456 139.38 238.629 139.34C238.816 139.3 238.983 139.247 239.129 139.18L239.529 140.88C239.263 140.973 238.956 141.053 238.609 141.12C238.276 141.2 237.916 141.24 237.529 141.24ZM245.5 141V127.92H247.82V141H245.5ZM253.684 141.24C253.004 141.24 252.331 141.113 251.664 140.86C251.011 140.593 250.444 140.267 249.964 139.88L251.044 138.4C251.484 138.747 251.918 139.02 252.344 139.22C252.784 139.407 253.258 139.5 253.764 139.5C254.298 139.5 254.691 139.393 254.944 139.18C255.198 138.953 255.324 138.667 255.324 138.32C255.324 138.12 255.264 137.947 255.144 137.8C255.024 137.64 254.864 137.5 254.664 137.38C254.464 137.26 254.238 137.153 253.984 137.06C253.731 136.953 253.478 136.847 253.224 136.74C252.904 136.62 252.578 136.48 252.244 136.32C251.911 136.16 251.611 135.967 251.344 135.74C251.091 135.513 250.878 135.253 250.704 134.96C250.544 134.653 250.464 134.293 250.464 133.88C250.464 133.013 250.784 132.307 251.424 131.76C252.064 131.213 252.938 130.94 254.044 130.94C254.724 130.94 255.338 131.06 255.884 131.3C256.431 131.54 256.904 131.813 257.304 132.12L256.244 133.52C255.898 133.267 255.544 133.067 255.184 132.92C254.838 132.76 254.471 132.68 254.084 132.68C253.591 132.68 253.224 132.787 252.984 133C252.758 133.2 252.644 133.453 252.644 133.76C252.644 133.96 252.698 134.133 252.804 134.28C252.924 134.413 253.078 134.533 253.264 134.64C253.451 134.747 253.664 134.847 253.904 134.94C254.158 135.033 254.418 135.127 254.684 135.22C255.018 135.34 255.351 135.48 255.684 135.64C256.018 135.787 256.318 135.973 256.584 136.2C256.864 136.427 257.084 136.707 257.244 137.04C257.418 137.36 257.504 137.747 257.504 138.2C257.504 138.627 257.418 139.027 257.244 139.4C257.084 139.76 256.844 140.08 256.524 140.36C256.204 140.627 255.804 140.84 255.324 141C254.844 141.16 254.298 141.24 253.684 141.24ZM263.762 141V127.92H271.642V129.88H266.082V133.22H270.782V135.18H266.082V139.04H271.842V141H263.762ZM274.323 141V131.18H276.223L276.383 132.52H276.463C276.877 132.08 277.323 131.707 277.803 131.4C278.297 131.093 278.85 130.94 279.463 130.94C280.183 130.94 280.757 131.093 281.183 131.4C281.623 131.707 281.957 132.14 282.183 132.7C282.65 132.193 283.137 131.773 283.643 131.44C284.15 131.107 284.717 130.94 285.343 130.94C286.383 130.94 287.15 131.28 287.643 131.96C288.137 132.627 288.383 133.587 288.383 134.84V141H286.063V135.14C286.063 134.327 285.937 133.753 285.683 133.42C285.443 133.087 285.07 132.92 284.563 132.92C283.95 132.92 283.263 133.327 282.503 134.14V141H280.203V135.14C280.203 134.327 280.077 133.753 279.823 133.42C279.583 133.087 279.203 132.92 278.683 132.92C278.07 132.92 277.383 133.327 276.623 134.14V141H274.323ZM291.179 144.88V131.18H293.079L293.239 132.22H293.319C293.732 131.873 294.192 131.573 294.699 131.32C295.205 131.067 295.732 130.94 296.279 130.94C296.892 130.94 297.432 131.06 297.899 131.3C298.379 131.527 298.785 131.86 299.119 132.3C299.452 132.74 299.705 133.267 299.879 133.88C300.052 134.493 300.139 135.18 300.139 135.94C300.139 136.78 300.019 137.533 299.779 138.2C299.552 138.853 299.245 139.407 298.859 139.86C298.472 140.3 298.025 140.64 297.519 140.88C297.012 141.12 296.485 141.24 295.939 141.24C295.512 141.24 295.085 141.147 294.659 140.96C294.232 140.773 293.819 140.507 293.419 140.16L293.479 141.8V144.88H291.179ZM295.459 139.34C296.112 139.34 296.659 139.06 297.099 138.5C297.539 137.927 297.759 137.08 297.759 135.96C297.759 134.973 297.592 134.207 297.259 133.66C296.925 133.113 296.385 132.84 295.639 132.84C294.945 132.84 294.225 133.207 293.479 133.94V138.52C293.839 138.827 294.185 139.04 294.519 139.16C294.852 139.28 295.165 139.34 295.459 139.34ZM305.479 141.24C304.905 141.24 304.419 141.153 304.019 140.98C303.632 140.807 303.312 140.567 303.059 140.26C302.819 139.94 302.639 139.567 302.519 139.14C302.412 138.7 302.359 138.213 302.359 137.68V133H300.959V131.28L302.479 131.18L302.759 128.5H304.679V131.18H307.179V133H304.679V137.68C304.679 138.827 305.139 139.4 306.059 139.4C306.232 139.4 306.405 139.38 306.579 139.34C306.765 139.3 306.932 139.247 307.079 139.18L307.479 140.88C307.212 140.973 306.905 141.053 306.559 141.12C306.225 141.2 305.865 141.24 305.479 141.24ZM309.905 145.04C309.638 145.04 309.405 145.02 309.205 144.98C309.005 144.953 308.812 144.907 308.625 144.84L309.045 143.04C309.138 143.067 309.245 143.093 309.365 143.12C309.498 143.16 309.625 143.18 309.745 143.18C310.265 143.18 310.678 143.02 310.985 142.7C311.305 142.393 311.545 141.993 311.705 141.5L311.885 140.88L308.025 131.18H310.365L312.065 136C312.212 136.427 312.352 136.88 312.485 137.36C312.632 137.827 312.778 138.293 312.925 138.76H313.005C313.125 138.307 313.245 137.847 313.365 137.38C313.498 136.9 313.625 136.44 313.745 136L315.225 131.18H317.445L313.885 141.44C313.685 142 313.465 142.5 313.225 142.94C312.985 143.38 312.705 143.753 312.385 144.06C312.078 144.38 311.718 144.62 311.305 144.78C310.905 144.953 310.438 145.04 309.905 145.04Z" fill="black" fill-opacity="0.6"/>
</svg>
